<?xml version="1.0" encoding="UTF-8" standalone="no"?>
<!DOCTYPE svg PUBLIC "-//W3C//DTD SVG 1.1//EN"
 "http://www.w3.org/Graphics/SVG/1.1/DTD/svg11.dtd">
<!-- Generated by graphviz version 5.0.0 (20220707.1540)
 -->
<!-- Title: dependencies Pages: 1 -->
<svg width="430pt" height="247pt"
 viewBox="0.00 0.00 430.00 246.80" xmlns="http://www.w3.org/2000/svg" xmlns:xlink="http://www.w3.org/1999/xlink">
<g id="graph0" class="graph" transform="scale(1 1) rotate(0) translate(4 242.8)">
<title>dependencies</title>
<polygon fill="white" stroke="transparent" points="-4,4 -4,-242.8 426,-242.8 426,4 -4,4"/>
<text text-anchor="middle" x="211" y="-8.2" font-family="sans-serif" font-size="14.00">dependencies</text>
<g id="clust1" class="cluster">
<title>cluster_GraphModule</title>
<polygon fill="none" stroke="black" stroke-dasharray="1,5" points="8,-32.8 8,-230.8 414,-230.8 414,-32.8 8,-32.8"/>
</g>
<g id="clust6" class="cluster">
<title>cluster_GraphModule_providers</title>
<polygon fill="none" stroke="black" points="262,-40.8 262,-92.8 406,-92.8 406,-40.8 262,-40.8"/>
</g>
<g id="clust4" class="cluster">
<title>cluster_GraphModule_exports</title>
<polygon fill="none" stroke="black" points="137,-170.8 137,-222.8 249,-222.8 249,-170.8 137,-170.8"/>
</g>
<g id="clust3" class="cluster">
<title>cluster_GraphModule_imports</title>
<polygon fill="none" stroke="black" points="16,-40.8 16,-92.8 254,-92.8 254,-40.8 16,-40.8"/>
</g>
<!-- AirportsModule -->
<g id="node1" class="node">
<title>AirportsModule</title>
<polygon fill="#8dd3c7" stroke="black" points="246.21,-84.8 243.21,-88.8 222.21,-88.8 219.21,-84.8 139.79,-84.8 139.79,-48.8 246.21,-48.8 246.21,-84.8"/>
<text text-anchor="middle" x="193" y="-62.6" font-family="Times,serif" font-size="14.00">AirportsModule</text>
</g>
<!-- GraphModule -->
<g id="node3" class="node">
<title>GraphModule</title>
<polygon fill="#8dd3c7" stroke="black" points="240.04,-149.8 237.04,-153.8 216.04,-153.8 213.04,-149.8 145.96,-149.8 145.96,-113.8 240.04,-113.8 240.04,-149.8"/>
<text text-anchor="middle" x="193" y="-127.6" font-family="Times,serif" font-size="14.00">GraphModule</text>
</g>
<!-- AirportsModule&#45;&gt;GraphModule -->
<g id="edge1" class="edge">
<title>AirportsModule&#45;&gt;GraphModule</title>
<path fill="none" stroke="black" d="M193,-84.91C193,-84.91 193,-103.79 193,-103.79"/>
<polygon fill="black" stroke="black" points="189.5,-103.79 193,-113.79 196.5,-103.79 189.5,-103.79"/>
</g>
<!-- RoutesModule -->
<g id="node2" class="node">
<title>RoutesModule</title>
<polygon fill="#8dd3c7" stroke="black" points="122.44,-84.8 119.44,-88.8 98.44,-88.8 95.44,-84.8 23.56,-84.8 23.56,-48.8 122.44,-48.8 122.44,-84.8"/>
<text text-anchor="middle" x="73" y="-62.6" font-family="Times,serif" font-size="14.00">RoutesModule</text>
</g>
<!-- RoutesModule&#45;&gt;GraphModule -->
<g id="edge2" class="edge">
<title>RoutesModule&#45;&gt;GraphModule</title>
<path fill="none" stroke="black" d="M73,-84.91C73,-104.14 73,-131.8 73,-131.8 73,-131.8 135.92,-131.8 135.92,-131.8"/>
<polygon fill="black" stroke="black" points="135.92,-135.3 145.92,-131.8 135.92,-128.3 135.92,-135.3"/>
</g>
<!-- GraphService  -->
<g id="node4" class="node">
<title>GraphService </title>
<polygon fill="#fb8072" stroke="black" points="241.47,-214.8 144.53,-214.8 144.53,-178.8 241.47,-178.8 241.47,-214.8"/>
<text text-anchor="middle" x="193" y="-192.6" font-family="Times,serif" font-size="14.00">GraphService </text>
</g>
<!-- GraphModule&#45;&gt;GraphService  -->
<g id="edge3" class="edge">
<title>GraphModule&#45;&gt;GraphService </title>
<path fill="none" stroke="black" stroke-dasharray="5,2" d="M193,-149.91C193,-149.91 193,-168.79 193,-168.79"/>
<polygon fill="black" stroke="black" points="189.5,-168.79 193,-178.79 196.5,-168.79 189.5,-168.79"/>
</g>
<!-- GraphService -->
<g id="node5" class="node">
<title>GraphService</title>
<ellipse fill="#fdb462" stroke="black" cx="334" cy="-66.8" rx="64.25" ry="18"/>
<text text-anchor="middle" x="334" y="-62.6" font-family="Times,serif" font-size="14.00">GraphService</text>
</g>
<!-- GraphService&#45;&gt;GraphModule -->
<g id="edge4" class="edge">
<title>GraphService&#45;&gt;GraphModule</title>
<path fill="none" stroke="black" d="M334,-84.91C334,-104.14 334,-131.8 334,-131.8 334,-131.8 250.34,-131.8 250.34,-131.8"/>
<polygon fill="black" stroke="black" points="250.34,-128.3 240.34,-131.8 250.34,-135.3 250.34,-128.3"/>
</g>
</g>
</svg>
