<?xml version="1.0" encoding="UTF-8" standalone="no"?>
<!DOCTYPE svg PUBLIC "-//W3C//DTD SVG 1.1//EN"
 "http://www.w3.org/Graphics/SVG/1.1/DTD/svg11.dtd">
<!-- Generated by graphviz version 5.0.0 (20220707.1540)
 -->
<!-- Title: dependencies Pages: 1 -->
<svg width="200pt" height="247pt"
 viewBox="0.00 0.00 200.00 246.80" xmlns="http://www.w3.org/2000/svg" xmlns:xlink="http://www.w3.org/1999/xlink">
<g id="graph0" class="graph" transform="scale(1 1) rotate(0) translate(4 242.8)">
<title>dependencies</title>
<polygon fill="white" stroke="transparent" points="-4,4 -4,-242.8 196,-242.8 196,4 -4,4"/>
<text text-anchor="middle" x="96" y="-8.2" font-family="sans-serif" font-size="14.00">dependencies</text>
<g id="clust1" class="cluster">
<title>cluster_AirportsModule</title>
<polygon fill="none" stroke="black" stroke-dasharray="1,5" points="8,-32.8 8,-230.8 184,-230.8 184,-32.8 8,-32.8"/>
</g>
<g id="clust4" class="cluster">
<title>cluster_AirportsModule_exports</title>
<polygon fill="none" stroke="black" points="34,-170.8 34,-222.8 158,-222.8 158,-170.8 34,-170.8"/>
</g>
<g id="clust6" class="cluster">
<title>cluster_AirportsModule_providers</title>
<polygon fill="none" stroke="black" points="16,-40.8 16,-92.8 176,-92.8 176,-40.8 16,-40.8"/>
</g>
<!-- AirportsService  -->
<g id="node1" class="node">
<title>AirportsService </title>
<polygon fill="#fb8072" stroke="black" points="150.14,-214.8 41.86,-214.8 41.86,-178.8 150.14,-178.8 150.14,-214.8"/>
<text text-anchor="middle" x="96" y="-192.6" font-family="Times,serif" font-size="14.00">AirportsService </text>
</g>
<!-- AirportsModule -->
<g id="node2" class="node">
<title>AirportsModule</title>
<polygon fill="#8dd3c7" stroke="black" points="149.21,-149.8 146.21,-153.8 125.21,-153.8 122.21,-149.8 42.79,-149.8 42.79,-113.8 149.21,-113.8 149.21,-149.8"/>
<text text-anchor="middle" x="96" y="-127.6" font-family="Times,serif" font-size="14.00">AirportsModule</text>
</g>
<!-- AirportsModule&#45;&gt;AirportsService  -->
<g id="edge1" class="edge">
<title>AirportsModule&#45;&gt;AirportsService </title>
<path fill="none" stroke="black" stroke-dasharray="5,2" d="M96,-149.91C96,-149.91 96,-168.79 96,-168.79"/>
<polygon fill="black" stroke="black" points="92.5,-168.79 96,-178.79 99.5,-168.79 92.5,-168.79"/>
</g>
<!-- AirportsService -->
<g id="node3" class="node">
<title>AirportsService</title>
<ellipse fill="#fdb462" stroke="black" cx="96" cy="-66.8" rx="72.36" ry="18"/>
<text text-anchor="middle" x="96" y="-62.6" font-family="Times,serif" font-size="14.00">AirportsService</text>
</g>
<!-- AirportsService&#45;&gt;AirportsModule -->
<g id="edge2" class="edge">
<title>AirportsService&#45;&gt;AirportsModule</title>
<path fill="none" stroke="black" d="M96,-84.91C96,-84.91 96,-103.79 96,-103.79"/>
<polygon fill="black" stroke="black" points="92.5,-103.79 96,-113.79 99.5,-103.79 92.5,-103.79"/>
</g>
</g>
</svg>
