<?xml version="1.0" encoding="UTF-8" standalone="no"?>
<!DOCTYPE svg PUBLIC "-//W3C//DTD SVG 1.1//EN"
 "http://www.w3.org/Graphics/SVG/1.1/DTD/svg11.dtd">
<!-- Generated by graphviz version 5.0.0 (20220707.1540)
 -->
<!-- Title: dependencies Pages: 1 -->
<svg width="188pt" height="247pt"
 viewBox="0.00 0.00 188.00 246.80" xmlns="http://www.w3.org/2000/svg" xmlns:xlink="http://www.w3.org/1999/xlink">
<g id="graph0" class="graph" transform="scale(1 1) rotate(0) translate(4 242.8)">
<title>dependencies</title>
<polygon fill="white" stroke="transparent" points="-4,4 -4,-242.8 184,-242.8 184,4 -4,4"/>
<text text-anchor="middle" x="90" y="-8.2" font-family="sans-serif" font-size="14.00">dependencies</text>
<g id="clust1" class="cluster">
<title>cluster_CommonModule</title>
<polygon fill="none" stroke="black" stroke-dasharray="1,5" points="8,-32.8 8,-230.8 172,-230.8 172,-32.8 8,-32.8"/>
</g>
<g id="clust4" class="cluster">
<title>cluster_CommonModule_exports</title>
<polygon fill="none" stroke="black" points="32,-170.8 32,-222.8 148,-222.8 148,-170.8 32,-170.8"/>
</g>
<g id="clust6" class="cluster">
<title>cluster_CommonModule_providers</title>
<polygon fill="none" stroke="black" points="16,-40.8 16,-92.8 164,-92.8 164,-40.8 16,-40.8"/>
</g>
<!-- GeolibService  -->
<g id="node1" class="node">
<title>GeolibService </title>
<polygon fill="#fb8072" stroke="black" points="139.58,-214.8 40.42,-214.8 40.42,-178.8 139.58,-178.8 139.58,-214.8"/>
<text text-anchor="middle" x="90" y="-192.6" font-family="Times,serif" font-size="14.00">GeolibService </text>
</g>
<!-- CommonModule -->
<g id="node2" class="node">
<title>CommonModule</title>
<polygon fill="#8dd3c7" stroke="black" points="145.67,-149.8 142.67,-153.8 121.67,-153.8 118.67,-149.8 34.33,-149.8 34.33,-113.8 145.67,-113.8 145.67,-149.8"/>
<text text-anchor="middle" x="90" y="-127.6" font-family="Times,serif" font-size="14.00">CommonModule</text>
</g>
<!-- CommonModule&#45;&gt;GeolibService  -->
<g id="edge1" class="edge">
<title>CommonModule&#45;&gt;GeolibService </title>
<path fill="none" stroke="black" stroke-dasharray="5,2" d="M90,-149.91C90,-149.91 90,-168.79 90,-168.79"/>
<polygon fill="black" stroke="black" points="86.5,-168.79 90,-178.79 93.5,-168.79 86.5,-168.79"/>
</g>
<!-- GeolibService -->
<g id="node3" class="node">
<title>GeolibService</title>
<ellipse fill="#fdb462" stroke="black" cx="90" cy="-66.8" rx="66.05" ry="18"/>
<text text-anchor="middle" x="90" y="-62.6" font-family="Times,serif" font-size="14.00">GeolibService</text>
</g>
<!-- GeolibService&#45;&gt;CommonModule -->
<g id="edge2" class="edge">
<title>GeolibService&#45;&gt;CommonModule</title>
<path fill="none" stroke="black" d="M90,-84.91C90,-84.91 90,-103.79 90,-103.79"/>
<polygon fill="black" stroke="black" points="86.5,-103.79 90,-113.79 93.5,-103.79 86.5,-103.79"/>
</g>
</g>
</svg>
