<?xml version="1.0" encoding="UTF-8" standalone="no"?>
<!DOCTYPE svg PUBLIC "-//W3C//DTD SVG 1.1//EN"
 "http://www.w3.org/Graphics/SVG/1.1/DTD/svg11.dtd">
<!-- Generated by graphviz version 5.0.0 (20220707.1540)
 -->
<!-- Title: dependencies Pages: 1 -->
<svg width="787pt" height="174pt"
 viewBox="0.00 0.00 787.00 173.80" xmlns="http://www.w3.org/2000/svg" xmlns:xlink="http://www.w3.org/1999/xlink">
<g id="graph0" class="graph" transform="scale(1 1) rotate(0) translate(4 169.8)">
<title>dependencies</title>
<polygon fill="white" stroke="transparent" points="-4,4 -4,-169.8 783,-169.8 783,4 -4,4"/>
<text text-anchor="middle" x="389.5" y="-8.2" font-family="sans-serif" font-size="14.00">dependencies</text>
<g id="clust1" class="cluster">
<title>cluster_AppModule</title>
<polygon fill="none" stroke="black" stroke-dasharray="1,5" points="8,-32.8 8,-157.8 771,-157.8 771,-32.8 8,-32.8"/>
</g>
<g id="clust6" class="cluster">
<title>cluster_AppModule_providers</title>
<polygon fill="none" stroke="black" points="633,-40.8 633,-92.8 763,-92.8 763,-40.8 633,-40.8"/>
</g>
<g id="clust3" class="cluster">
<title>cluster_AppModule_imports</title>
<polygon fill="none" stroke="black" points="16,-40.8 16,-92.8 625,-92.8 625,-40.8 16,-40.8"/>
</g>
<!-- AirportsModule -->
<g id="node1" class="node">
<title>AirportsModule</title>
<polygon fill="#8dd3c7" stroke="black" points="617.21,-84.8 614.21,-88.8 593.21,-88.8 590.21,-84.8 510.79,-84.8 510.79,-48.8 617.21,-48.8 617.21,-84.8"/>
<text text-anchor="middle" x="564" y="-62.6" font-family="Times,serif" font-size="14.00">AirportsModule</text>
</g>
<!-- AppModule -->
<g id="node6" class="node">
<title>AppModule</title>
<polygon fill="#8dd3c7" stroke="black" points="413.66,-149.8 410.66,-153.8 389.66,-153.8 386.66,-149.8 330.34,-149.8 330.34,-113.8 413.66,-113.8 413.66,-149.8"/>
<text text-anchor="middle" x="372" y="-127.6" font-family="Times,serif" font-size="14.00">AppModule</text>
</g>
<!-- AirportsModule&#45;&gt;AppModule -->
<g id="edge1" class="edge">
<title>AirportsModule&#45;&gt;AppModule</title>
<path fill="none" stroke="black" d="M564,-84.82C564,-102.17 564,-125.8 564,-125.8 564,-125.8 424.14,-125.8 424.14,-125.8"/>
<polygon fill="black" stroke="black" points="424.14,-122.3 414.14,-125.8 424.14,-129.3 424.14,-122.3"/>
</g>
<!-- CommonModule -->
<g id="node2" class="node">
<title>CommonModule</title>
<polygon fill="#8dd3c7" stroke="black" points="492.67,-84.8 489.67,-88.8 468.67,-88.8 465.67,-84.8 381.33,-84.8 381.33,-48.8 492.67,-48.8 492.67,-84.8"/>
<text text-anchor="middle" x="437" y="-62.6" font-family="Times,serif" font-size="14.00">CommonModule</text>
</g>
<!-- CommonModule&#45;&gt;AppModule -->
<g id="edge2" class="edge">
<title>CommonModule&#45;&gt;AppModule</title>
<path fill="none" stroke="black" d="M397.5,-84.91C397.5,-84.91 397.5,-103.79 397.5,-103.79"/>
<polygon fill="black" stroke="black" points="394,-103.79 397.5,-113.79 401,-103.79 394,-103.79"/>
</g>
<!-- DatabaseModule -->
<g id="node3" class="node">
<title>DatabaseModule</title>
<polygon fill="#8dd3c7" stroke="black" points="363.36,-84.8 360.36,-88.8 339.36,-88.8 336.36,-84.8 252.64,-84.8 252.64,-48.8 363.36,-48.8 363.36,-84.8"/>
<text text-anchor="middle" x="308" y="-62.6" font-family="Times,serif" font-size="14.00">DatabaseModule</text>
</g>
<!-- DatabaseModule&#45;&gt;AppModule -->
<g id="edge3" class="edge">
<title>DatabaseModule&#45;&gt;AppModule</title>
<path fill="none" stroke="black" d="M346.8,-84.91C346.8,-84.91 346.8,-103.79 346.8,-103.79"/>
<polygon fill="black" stroke="black" points="343.3,-103.79 346.8,-113.79 350.3,-103.79 343.3,-103.79"/>
</g>
<!-- GraphModule -->
<g id="node4" class="node">
<title>GraphModule</title>
<polygon fill="#8dd3c7" stroke="black" points="234.04,-84.8 231.04,-88.8 210.04,-88.8 207.04,-84.8 139.96,-84.8 139.96,-48.8 234.04,-48.8 234.04,-84.8"/>
<text text-anchor="middle" x="187" y="-62.6" font-family="Times,serif" font-size="14.00">GraphModule</text>
</g>
<!-- GraphModule&#45;&gt;AppModule -->
<g id="edge4" class="edge">
<title>GraphModule&#45;&gt;AppModule</title>
<path fill="none" stroke="black" d="M187,-84.82C187,-102.17 187,-125.8 187,-125.8 187,-125.8 320.02,-125.8 320.02,-125.8"/>
<polygon fill="black" stroke="black" points="320.02,-129.3 330.02,-125.8 320.02,-122.3 320.02,-129.3"/>
</g>
<!-- RoutesModule -->
<g id="node5" class="node">
<title>RoutesModule</title>
<polygon fill="#8dd3c7" stroke="black" points="122.44,-84.8 119.44,-88.8 98.44,-88.8 95.44,-84.8 23.56,-84.8 23.56,-48.8 122.44,-48.8 122.44,-84.8"/>
<text text-anchor="middle" x="73" y="-62.6" font-family="Times,serif" font-size="14.00">RoutesModule</text>
</g>
<!-- RoutesModule&#45;&gt;AppModule -->
<g id="edge5" class="edge">
<title>RoutesModule&#45;&gt;AppModule</title>
<path fill="none" stroke="black" d="M73,-85.08C73,-106.12 73,-137.8 73,-137.8 73,-137.8 320.11,-137.8 320.11,-137.8"/>
<polygon fill="black" stroke="black" points="320.11,-141.3 330.11,-137.8 320.11,-134.3 320.11,-141.3"/>
</g>
<!-- AppService -->
<g id="node7" class="node">
<title>AppService</title>
<ellipse fill="#fdb462" stroke="black" cx="698" cy="-66.8" rx="56.75" ry="18"/>
<text text-anchor="middle" x="698" y="-62.6" font-family="Times,serif" font-size="14.00">AppService</text>
</g>
<!-- AppService&#45;&gt;AppModule -->
<g id="edge6" class="edge">
<title>AppService&#45;&gt;AppModule</title>
<path fill="none" stroke="black" d="M698,-85.08C698,-106.12 698,-137.8 698,-137.8 698,-137.8 423.95,-137.8 423.95,-137.8"/>
<polygon fill="black" stroke="black" points="423.95,-134.3 413.95,-137.8 423.95,-141.3 423.95,-134.3"/>
</g>
</g>
</svg>
